G04 ===== Begin FILE IDENTIFICATION =====*
G04 File Format:  Gerber RS274X*
G04 Date: Nov  3 2007*
G04 ===== End FILE IDENTIFICATION =====*
%FSLAX35Y35*%
%MOMM*%
%SFA1.0B1.0*%
%OFA0.0B0.0*%
%ADD14R,1.540000X0.540000*%
%ADD15R,0.540000X0.960000*%
%ADD16R,3.320000X1.770000*%
%ADD17R,1.980000X1.770000*%
%ADD18C,0.025000*%
%LNcond*%
%IPPOS*%
%LPD*%
G75*
G36*
G01X-3602000Y-6364000D02*
G01Y-6475000D01*
G01X-4102000D01*
G01X-4118950Y-6475740D01*
G01X-4135770Y-6477950D01*
G01X-4152340Y-6481630D01*
G01X-4168520Y-6486730D01*
G01X-4184200Y-6493220D01*
G01X-4199250Y-6501060D01*
G01X-4213560Y-6510170D01*
G01X-4227020Y-6520500D01*
G01X-4239530Y-6531970D01*
G01X-4251000Y-6544480D01*
G01X-4261330Y-6557940D01*
G01X-4270440Y-6572250D01*
G01X-4278280Y-6587300D01*
G01X-4284770Y-6602980D01*
G01X-4289870Y-6619160D01*
G01X-4293550Y-6635730D01*
G01X-4295760Y-6652550D01*
G01X-4296500Y-6669500D01*
G01Y-8679000D01*
G01X-4297660Y-8705630D01*
G01X-4301140Y-8732050D01*
G01X-4306910Y-8758070D01*
G01X-4314920Y-8783490D01*
G01X-4325120Y-8808110D01*
G01X-4337430Y-8831750D01*
G01X-4351750Y-8854230D01*
G01X-4367970Y-8875370D01*
G01X-4385980Y-8895020D01*
G01X-4405630Y-8913030D01*
G01X-4426770Y-8929250D01*
G01X-4449250Y-8943570D01*
G01X-4472890Y-8955880D01*
G01X-4497510Y-8966080D01*
G01X-4522930Y-8974090D01*
G01X-4548950Y-8979860D01*
G01X-4575370Y-8983340D01*
G01X-4602000Y-8984500D01*
G01X-4866000D01*
G01Y-9160000D01*
G01X-4910000D01*
G01Y-8958000D01*
G01X-5790000D01*
G01X-5831920Y-8959830D01*
G01X-5873520Y-8965310D01*
G01X-5914490Y-8974390D01*
G01X-5954510Y-8987010D01*
G01X-5993280Y-9003070D01*
G01X-6030500Y-9022440D01*
G01X-6065890Y-9044990D01*
G01X-6099180Y-9070530D01*
G01X-6130120Y-9098880D01*
G01X-6158470Y-9129820D01*
G01X-6184010Y-9163110D01*
G01X-6206560Y-9198500D01*
G01X-6225930Y-9235720D01*
G01X-6241990Y-9274490D01*
G01X-6254610Y-9314510D01*
G01X-6263690Y-9355480D01*
G01X-6269170Y-9397080D01*
G01X-6271000Y-9439000D01*
G01X-6021000D01*
G01Y-9467500D01*
G01X-5921000D01*
G01Y-9521500D01*
G01X-5994000D01*
G01Y-9594500D01*
G01X-6048000D01*
G01Y-9550000D01*
G01X-6271000D01*
G01X-6269170Y-9591920D01*
G01X-6263690Y-9633520D01*
G01X-6254610Y-9674490D01*
G01X-6241990Y-9714510D01*
G01X-6225930Y-9753280D01*
G01X-6206560Y-9790500D01*
G01X-6184010Y-9825890D01*
G01X-6158470Y-9859180D01*
G01X-6130120Y-9890120D01*
G01X-6099180Y-9918470D01*
G01X-6065890Y-9944010D01*
G01X-6030500Y-9966560D01*
G01X-5993280Y-9985930D01*
G01X-5954510Y-10001990D01*
G01X-5914490Y-10014610D01*
G01X-5873520Y-10023690D01*
G01X-5831920Y-10029170D01*
G01X-5790000Y-10031000D01*
G01X-4910000D01*
G01Y-9773000D01*
G01X-4973000D01*
G01Y-9680000D01*
G01X-4919000D01*
G01Y-9730000D01*
G01X-4869000D01*
G01Y-9680000D01*
G01X-4815000D01*
G01Y-9773000D01*
G01X-4869000D01*
G01Y-10004500D01*
G01X-4602000D01*
G01X-4575370Y-10005660D01*
G01X-4548950Y-10009140D01*
G01X-4522930Y-10014910D01*
G01X-4497510Y-10022920D01*
G01X-4472890Y-10033120D01*
G01X-4449250Y-10045430D01*
G01X-4426770Y-10059750D01*
G01X-4405630Y-10075970D01*
G01X-4385980Y-10093980D01*
G01X-4367970Y-10113630D01*
G01X-4351750Y-10134770D01*
G01X-4337430Y-10157250D01*
G01X-4325120Y-10180890D01*
G01X-4314920Y-10205510D01*
G01X-4306910Y-10230930D01*
G01X-4301140Y-10256950D01*
G01X-4297660Y-10283370D01*
G01X-4296500Y-10310000D01*
G01Y-12319500D01*
G01X-4295760Y-12336450D01*
G01X-4293550Y-12353270D01*
G01X-4289870Y-12369840D01*
G01X-4284770Y-12386020D01*
G01X-4278280Y-12401700D01*
G01X-4270440Y-12416750D01*
G01X-4261330Y-12431060D01*
G01X-4251000Y-12444520D01*
G01X-4239530Y-12457030D01*
G01X-4227020Y-12468500D01*
G01X-4213560Y-12478830D01*
G01X-4199250Y-12487940D01*
G01X-4184200Y-12495780D01*
G01X-4168520Y-12502270D01*
G01X-4152340Y-12507370D01*
G01X-4135770Y-12511050D01*
G01X-4118950Y-12513260D01*
G01X-4102000Y-12514000D01*
G01X-3602000D01*
G01Y-12625000D01*
G01X-4102000D01*
G01X-4128630Y-12623840D01*
G01X-4155050Y-12620360D01*
G01X-4181070Y-12614590D01*
G01X-4206490Y-12606580D01*
G01X-4231110Y-12596380D01*
G01X-4254750Y-12584070D01*
G01X-4277230Y-12569750D01*
G01X-4298370Y-12553530D01*
G01X-4318020Y-12535520D01*
G01X-4336030Y-12515870D01*
G01X-4352250Y-12494730D01*
G01X-4366570Y-12472250D01*
G01X-4378880Y-12448610D01*
G01X-4389080Y-12423990D01*
G01X-4397090Y-12398570D01*
G01X-4402860Y-12372550D01*
G01X-4406340Y-12346130D01*
G01X-4407500Y-12319500D01*
G01Y-10310000D01*
G01X-4408240Y-10293050D01*
G01X-4410450Y-10276230D01*
G01X-4414130Y-10259660D01*
G01X-4419230Y-10243480D01*
G01X-4425720Y-10227800D01*
G01X-4433560Y-10212750D01*
G01X-4442670Y-10198440D01*
G01X-4453000Y-10184980D01*
G01X-4464470Y-10172470D01*
G01X-4476980Y-10161000D01*
G01X-4490440Y-10150670D01*
G01X-4504750Y-10141560D01*
G01X-4519800Y-10133720D01*
G01X-4535480Y-10127230D01*
G01X-4551660Y-10122130D01*
G01X-4568230Y-10118450D01*
G01X-4585050Y-10116240D01*
G01X-4602000Y-10115500D01*
G01X-4881000D01*
G01Y-10089000D01*
G01X-5790000D01*
G01X-5836980Y-10086950D01*
G01X-5883600Y-10080810D01*
G01X-5929500Y-10070630D01*
G01X-5974350Y-10056490D01*
G01X-6017790Y-10038500D01*
G01X-6059500Y-10016790D01*
G01X-6099160Y-9991520D01*
G01X-6136460Y-9962900D01*
G01X-6171130Y-9931130D01*
G01X-6202900Y-9896460D01*
G01X-6231520Y-9859160D01*
G01X-6256790Y-9819500D01*
G01X-6278500Y-9777790D01*
G01X-6296490Y-9734350D01*
G01X-6310630Y-9689500D01*
G01X-6320810Y-9643600D01*
G01X-6326950Y-9596980D01*
G01X-6329000Y-9550000D01*
G01Y-9439000D01*
G01X-6326950Y-9392020D01*
G01X-6320810Y-9345400D01*
G01X-6310630Y-9299500D01*
G01X-6296490Y-9254650D01*
G01X-6278500Y-9211210D01*
G01X-6256790Y-9169500D01*
G01X-6231520Y-9129840D01*
G01X-6202900Y-9092540D01*
G01X-6171130Y-9057870D01*
G01X-6136460Y-9026100D01*
G01X-6099160Y-8997480D01*
G01X-6059500Y-8972210D01*
G01X-6017790Y-8950500D01*
G01X-5974350Y-8932510D01*
G01X-5929500Y-8918370D01*
G01X-5883600Y-8908190D01*
G01X-5836980Y-8902050D01*
G01X-5790000Y-8900000D01*
G01X-4881000D01*
G01Y-8873500D01*
G01X-4602000D01*
G01X-4585050Y-8872760D01*
G01X-4568230Y-8870550D01*
G01X-4551660Y-8866870D01*
G01X-4535480Y-8861770D01*
G01X-4519800Y-8855280D01*
G01X-4504750Y-8847440D01*
G01X-4490440Y-8838330D01*
G01X-4476980Y-8828000D01*
G01X-4464470Y-8816530D01*
G01X-4453000Y-8804020D01*
G01X-4442670Y-8790560D01*
G01X-4433560Y-8776250D01*
G01X-4425720Y-8761200D01*
G01X-4419230Y-8745520D01*
G01X-4414130Y-8729340D01*
G01X-4410450Y-8712770D01*
G01X-4408240Y-8695950D01*
G01X-4407500Y-8679000D01*
G01Y-6669500D01*
G01X-4406340Y-6642870D01*
G01X-4402860Y-6616450D01*
G01X-4397090Y-6590430D01*
G01X-4389080Y-6565010D01*
G01X-4378880Y-6540390D01*
G01X-4366570Y-6516750D01*
G01X-4352250Y-6494270D01*
G01X-4336030Y-6473130D01*
G01X-4318020Y-6453480D01*
G01X-4298370Y-6435470D01*
G01X-4277230Y-6419250D01*
G01X-4254750Y-6404930D01*
G01X-4231110Y-6392620D01*
G01X-4206490Y-6382420D01*
G01X-4181070Y-6374410D01*
G01X-4155050Y-6368640D01*
G01X-4128630Y-6365160D01*
G01X-4102000Y-6364000D01*
G01X-3602000D01*
G37*
G36*
G01X-4866000Y-9194000D02*
G01Y-9247000D01*
G01X-4842000D01*
G01X-4815000Y-9301000D01*
G01Y-9646000D01*
G01X-4869000D01*
G01Y-9301000D01*
G01X-4969000D01*
G01X-4942000Y-9247000D01*
G01X-4910000D01*
G01Y-9194000D01*
G01X-4866000D01*
G37*
G36*
G01X-5416000Y-9241500D02*
G01Y-9467500D01*
G01X-5069000D01*
G01Y-9521500D01*
G01X-5446000D01*
G01Y-9594500D01*
G01X-5500000D01*
G01Y-9521500D01*
G01X-5580000D01*
G01Y-9594500D01*
G01X-5634000D01*
G01Y-9521500D01*
G01X-5707000D01*
G01Y-9467500D01*
G01X-5651700D01*
G01Y-9241500D01*
G01X-5416000D01*
G37*
G36*
G01X-4919000Y-9324000D02*
G01Y-9520000D01*
G01X-4990000D01*
G01Y-9521500D01*
G01X-5019000D01*
G01Y-9467500D01*
G01X-4969000D01*
G01Y-9324000D01*
G01X-4919000D01*
G37*
D14*
X-5814000Y-9494500D03*
D15*
X-4946000Y-9598000D03*
D16*
X-5540000Y-9713000D03*
D17*
X-6015000D03*
D18*
G01X-5527000Y-9494500D02*
G01X-5523000D01*
M02*

